<?xml version="1.0" standalone="no"?>
<!DOCTYPE svg PUBLIC "-//W3C//DTD SVG 20010904//EN"
 "http://www.w3.org/TR/2001/REC-SVG-20010904/DTD/svg10.dtd">
<svg version="1.0" xmlns="http://www.w3.org/2000/svg"
 width="275.000000pt" height="183.000000pt" viewBox="0 0 275.000000 183.000000"
 preserveAspectRatio="xMidYMid meet">

<g transform="translate(0.000000,183.000000) scale(0.100000,-0.100000)"
fill="#000000" stroke="none">
<path d="M1870 1758 c-18 -13 -38 -38 -46 -55 -14 -36 -15 -36 61 -37 23 -1
29 -5 27 -18 -4 -24 13 -23 54 3 51 31 55 64 13 100 -41 35 -65 36 -109 7z"/>
<path d="M497 1733 c-4 -3 -7 -11 -7 -17 0 -6 5 -5 12 2 6 6 9 14 7 17 -3 3
-9 2 -12 -2z"/>
<path d="M768 1718 c-2 -19 -8 -22 -33 -20 -37 3 -97 -31 -89 -52 3 -8 20 -21
38 -30 18 -8 38 -27 44 -41 6 -14 18 -25 27 -25 8 0 14 -6 13 -12 -2 -8 11
-14 35 -16 32 -3 38 0 47 23 6 14 10 64 10 111 l0 84 -44 0 c-39 0 -45 -3 -48
-22z"/>
<path d="M533 1708 c-18 -13 -33 -27 -33 -32 0 -5 9 -1 20 9 11 10 23 15 28
11 4 -4 -5 -18 -19 -29 -15 -12 -30 -32 -33 -44 -5 -14 -12 -20 -21 -16 -23 8
-28 -22 -10 -56 15 -31 16 -31 39 -14 19 15 22 22 15 42 -5 13 -7 32 -4 42 5
15 11 16 32 8 14 -5 27 -8 28 -7 1 2 5 27 8 56 7 60 -1 64 -50 30z"/>
<path d="M1925 1610 c-3 -5 -1 -10 4 -10 6 0 11 5 11 10 0 6 -2 10 -4 10 -3 0
-8 -4 -11 -10z"/>
<path d="M1967 1613 c-4 -3 -7 -11 -7 -17 0 -6 5 -5 12 2 6 6 9 14 7 17 -3 3
-9 2 -12 -2z"/>
<path d="M1721 1548 c0 -13 4 -32 9 -43 7 -15 9 -10 9 23 1 23 -3 42 -9 42 -5
0 -10 -10 -9 -22z"/>
<path d="M1852 1540 c2 -8 16 -21 32 -29 34 -16 59 -6 64 27 3 18 -2 20 -48
19 -39 -2 -50 -5 -48 -17z"/>
<path d="M1940 1429 l-52 -111 -40 6 c-36 6 -40 5 -33 -11 4 -10 18 -53 31
-95 42 -139 66 -164 112 -115 19 20 20 28 12 57 -6 19 -10 58 -10 87 0 33 -6
57 -15 67 -20 19 -13 50 31 138 35 69 40 88 26 88 -5 0 -33 -50 -62 -111z"/>
<path d="M310 1509 c0 -5 5 -7 10 -4 6 3 10 8 10 11 0 2 -4 4 -10 4 -5 0 -10
-5 -10 -11z"/>
<path d="M807 1487 c4 -12 7 -35 7 -50 -1 -21 3 -27 13 -23 8 4 17 6 19 6 2 0
4 19 4 43 0 39 -2 43 -26 45 -22 2 -24 -1 -17 -21z"/>
<path d="M339 1483 c-1 -5 -1 -11 0 -15 0 -4 -11 -6 -26 -5 -14 1 -28 -4 -31
-11 -3 -10 5 -13 29 -10 29 2 34 0 37 -19 2 -13 10 -23 18 -23 8 0 13 -4 9
-10 -3 -5 -12 -7 -19 -4 -8 3 -17 1 -20 -5 -11 -17 24 -41 60 -41 23 0 33 -4
28 -11 -6 -10 -46 -9 -83 2 -10 3 -18 -9 -25 -33 -6 -21 -21 -45 -33 -53 -15
-10 -21 -26 -21 -55 -1 -36 2 -42 32 -54 24 -10 58 -12 121 -8 83 5 88 6 104
33 10 18 24 29 38 29 20 0 21 -3 16 -80 l-6 -80 97 0 c126 0 121 -11 112 247
-3 97 -1 125 10 134 8 6 14 15 14 20 0 20 -57 -51 -76 -95 -28 -65 -68 -106
-104 -106 -37 0 -42 9 -29 51 5 19 6 58 2 89 -4 30 -9 47 -11 38 -2 -10 -8
-18 -14 -18 -5 0 -8 7 -4 15 3 8 1 15 -4 15 -6 0 -10 -6 -10 -14 0 -16 -35
-27 -57 -19 -8 3 -12 12 -9 19 3 7 -12 29 -32 49 -29 27 -45 35 -74 35 -21 0
-39 -3 -39 -7z m105 -76 c-27 -15 -64 1 -64 27 l0 24 39 -21 c31 -17 37 -24
25 -30z m133 -79 c-3 -8 -6 -5 -6 6 -1 11 2 17 5 13 3 -3 4 -12 1 -19z"/>
<path d="M108 1383 c7 -3 16 -2 19 1 4 3 -2 6 -13 5 -11 0 -14 -3 -6 -6z"/>
<path d="M1748 1373 c0 -5 -2 -14 -2 -20 -1 -7 -6 -13 -11 -14 -21 -2 -35 -23
-35 -53 -1 -17 -7 -42 -15 -56 -8 -14 -14 -41 -15 -60 0 -20 -4 -40 -9 -45
-15 -16 -49 -166 -50 -219 0 -27 -5 -63 -10 -80 -5 -17 -15 -65 -22 -106 -7
-41 -13 -76 -14 -78 -4 -5 -178 29 -196 39 -23 12 -24 37 -2 61 15 16 15 18 0
18 -11 0 -20 -15 -28 -42 -21 -78 -39 -173 -39 -207 0 -30 -15 -57 -65 -113
-8 -10 -13 -18 -11 -18 3 0 0 -14 -6 -31 -7 -20 -22 -36 -42 -44 -22 -10 -27
-15 -16 -19 78 -28 158 -56 163 -56 7 0 25 179 27 261 l0 36 88 -13 c74 -10
89 -10 99 3 9 11 13 0 17 -54 4 -37 11 -81 16 -98 8 -25 6 -35 -11 -58 -15
-21 -19 -35 -13 -55 9 -34 6 -53 -13 -74 -13 -15 -12 -18 14 -32 24 -13 25
-15 8 -17 -11 -1 0 -5 25 -8 40 -5 45 -9 42 -28 -3 -24 11 -29 42 -17 17 6 23
34 7 34 -13 0 -7 63 10 95 11 20 19 71 24 155 4 69 12 131 17 137 6 7 21 13
33 13 29 0 41 -17 44 -61 1 -34 -20 -147 -33 -167 -3 -5 1 -18 9 -28 8 -10 15
-31 15 -46 0 -25 4 -28 38 -29 20 -1 29 -3 20 -6 -10 -2 -18 -9 -18 -15 0 -6
10 -8 23 -4 12 3 25 6 30 6 4 0 7 15 7 34 0 19 5 38 10 41 7 4 7 13 0 26 -8
14 -7 34 4 72 8 28 21 74 28 100 12 47 14 48 48 46 19 -2 41 -7 47 -12 24 -17
25 20 2 72 -14 35 -27 51 -40 51 -14 0 -19 9 -21 43 -2 23 1 61 5 84 7 36 3
59 -29 150 -22 61 -48 118 -61 130 -13 12 -23 29 -23 38 0 8 -7 15 -15 15 -20
0 -19 16 1 24 11 4 13 13 9 28 -65 218 -99 306 -107 271z m52 -674 c0 -89 0
-90 -22 -83 -13 3 -24 8 -26 9 -2 2 4 30 12 63 9 33 16 69 16 81 0 12 5 21 10
21 6 0 10 -37 10 -91z"/>
<path d="M86 1313 c-8 -54 -7 -116 3 -132 8 -12 12 -12 26 3 13 12 15 25 10
49 -4 18 -8 51 -8 75 -2 52 -22 56 -31 5z"/>
<path d="M1650 1290 c0 -5 5 -10 10 -10 6 0 10 5 10 10 0 6 -4 10 -10 10 -5 0
-10 -4 -10 -10z"/>
<path d="M30 1280 c0 -5 5 -10 10 -10 6 0 10 5 10 10 0 6 -4 10 -10 10 -5 0
-10 -4 -10 -10z"/>
<path d="M1421 1251 c-1 -8 -7 -11 -17 -7 -14 5 -15 4 -4 -9 11 -13 10 -14 -5
-9 -14 6 -16 4 -10 -7 12 -19 14 -49 3 -55 -4 -3 -5 -16 -2 -30 8 -32 -13 -32
-28 1 -9 20 -19 25 -45 25 -20 0 -32 -4 -28 -10 3 -5 1 -10 -6 -10 -10 0 -10
-3 -1 -12 7 -7 8 -17 1 -29 -8 -15 -4 -19 25 -24 39 -8 73 0 99 23 16 14 17
13 17 -13 0 -52 21 -11 27 51 4 41 1 70 -10 94 -8 19 -16 29 -16 21z m19 -64
c0 -12 -4 -28 -9 -35 -6 -10 -10 -7 -13 12 -3 15 -1 29 4 32 4 3 5 10 2 16 -4
7 -2 8 4 4 7 -4 12 -17 12 -29z"/>
<path d="M1290 1230 c8 -5 22 -9 30 -9 10 0 8 3 -5 9 -27 12 -43 12 -25 0z"/>
<path d="M2082 1193 c-6 -16 -21 -43 -32 -60 -22 -34 -18 -42 10 -20 19 15 60
80 60 96 0 22 -28 10 -38 -16z"/>
<path d="M1275 1190 c-4 -6 8 -10 30 -10 22 0 34 4 30 10 -3 6 -17 10 -30 10
-13 0 -27 -4 -30 -10z"/>
<path d="M1137 1149 c7 -7 15 -10 18 -7 3 3 -2 9 -12 12 -14 6 -15 5 -6 -5z"/>
<path d="M968 1077 c30 -32 43 -82 33 -126 -4 -21 -6 -63 -3 -94 4 -57 4 -57
-26 -63 -25 -5 -31 -12 -37 -41 -3 -19 -11 -47 -16 -61 l-10 -25 -29 28 c-17
16 -30 23 -30 16 0 -7 -7 -19 -15 -27 -9 -9 -15 -34 -15 -60 0 -37 -3 -44 -20
-44 -11 0 -20 -3 -20 -6 0 -24 35 -144 42 -144 5 0 6 4 3 10 -3 5 -2 17 3 26
7 13 11 10 16 -17 3 -19 10 -40 14 -47 5 -7 51 -27 103 -46 52 -18 103 -37
114 -42 16 -6 18 -5 9 7 -19 24 -22 55 -8 80 17 31 17 39 -1 39 -14 0 -35 56
-35 94 0 11 12 37 26 57 14 21 26 48 26 61 -1 75 -12 162 -21 168 -6 3 -9 24
-7 45 2 22 -2 49 -9 61 -8 12 -17 39 -21 60 -9 51 -30 91 -53 104 -32 16 -36
12 -13 -13z m-151 -529 c-3 -8 -6 -5 -6 6 -1 11 2 17 5 13 3 -3 4 -12 1 -19z"/>
<path d="M1109 1073 c-9 -10 -9 -14 -2 -10 9 6 11 -2 7 -30 -6 -48 11 -31 20
20 7 40 -3 48 -25 20z"/>
<path d="M160 1020 c0 -22 3 -40 8 -40 4 0 6 18 4 40 -2 22 -6 40 -8 40 -2 0
-4 -18 -4 -40z"/>
<path d="M2210 1045 c0 -3 10 -16 21 -28 l21 -22 -11 22 c-11 22 -31 40 -31
28z"/>
<path d="M1265 1030 c6 -10 2 -11 -19 -6 -15 4 -26 2 -26 -4 0 -13 47 -13 55
-1 3 5 0 13 -6 17 -8 5 -9 3 -4 -6z"/>
<path d="M1955 1012 c-16 -9 -31 -18 -33 -18 -1 -1 11 -39 28 -85 16 -45 30
-92 31 -103 1 -18 2 -18 9 4 10 32 12 220 3 220 -5 0 -21 -8 -38 -18z"/>
<path d="M1333 1003 c-13 -2 -23 -10 -23 -17 0 -18 47 -9 54 10 3 8 2 13 -2
13 -4 -1 -17 -4 -29 -6z"/>
<path d="M1132 970 c0 -14 2 -19 5 -12 2 6 2 18 0 25 -3 6 -5 1 -5 -13z"/>
<path d="M2286 951 c-3 -5 -1 -23 5 -40 8 -24 16 -30 35 -29 26 3 29 13 14 52
-9 26 -43 36 -54 17z"/>
<path d="M2411 934 c-14 -18 -21 -41 -21 -70 0 -23 -4 -46 -10 -49 -5 -3 -10
-19 -10 -35 0 -33 -16 -48 -33 -31 -6 6 -19 11 -29 11 -13 0 -18 8 -18 31 0
37 -23 35 -28 -2 -5 -31 -17 -43 -45 -44 -17 0 -23 -7 -25 -31 -3 -31 -2 -31
40 -30 43 1 43 1 43 -35 0 -20 6 -43 13 -51 10 -13 10 -17 -3 -22 -8 -3 -15
-11 -15 -17 0 -8 5 -7 16 2 14 11 15 7 13 -38 -2 -34 3 -59 14 -76 9 -14 14
-33 11 -41 -3 -8 -2 -21 3 -28 5 -8 10 5 13 37 4 39 9 51 24 53 19 4 19 -6 3
-75 -5 -19 0 -24 31 -33 48 -13 115 -13 107 0 -3 6 -19 10 -36 10 -42 0 -36
18 9 22 25 2 37 8 37 18 0 18 56 33 70 19 5 -5 12 -9 16 -9 11 0 3 72 -11 102
-14 29 -7 63 11 52 7 -4 26 -8 45 -9 25 -1 34 3 38 18 7 30 -3 44 -36 51 -58
11 -68 8 -68 -22 0 -15 -4 -41 -9 -59 -7 -24 -6 -35 5 -44 15 -13 19 -49 5
-49 -17 0 -62 28 -51 32 7 2 13 17 15 33 1 17 6 38 10 48 4 9 4 24 1 33 -3 8
-1 25 5 36 6 12 7 18 1 14 -17 -10 -35 22 -29 54 6 26 2 32 -24 46 -29 14 -31
18 -25 57 7 52 -16 141 -36 145 -9 2 -25 -9 -37 -24z m63 -59 c3 -9 0 -15 -9
-15 -9 0 -12 6 -9 15 4 8 7 15 9 15 2 0 5 -7 9 -15z m-44 -105 c11 -46 1 -67
-31 -67 -16 0 -29 5 -29 10 0 5 11 7 25 5 29 -6 29 -7 10 39 -19 44 -19 45 2
41 9 -2 20 -14 23 -28z m31 -73 c-10 -9 -11 -8 -5 6 3 10 9 15 12 12 3 -3 0
-11 -7 -18z m-23 -63 c-6 -21 -13 -33 -15 -26 -5 13 16 76 23 69 2 -2 -2 -21
-8 -43z m89 -20 c-3 -3 -12 -4 -19 -1 -8 3 -5 6 6 6 11 1 17 -2 13 -5z m-126
-37 c-10 -9 -11 -8 -5 6 3 10 9 15 12 12 3 -3 0 -11 -7 -18z m126 -69 c-3 -7
-5 -2 -5 12 0 14 2 19 5 13 2 -7 2 -19 0 -25z m-26 -5 c-6 -10 -11 -12 -11 -5
0 6 -10 13 -22 13 -18 1 -17 3 7 8 37 9 40 7 26 -16z m-115 6 c8 -14 -18 -31
-30 -19 -9 9 0 30 14 30 5 0 12 -5 16 -11z"/>
<path d="M1304 942 c-7 -4 -20 -32 -30 -62 -16 -51 -51 -120 -60 -120 -17 0
-84 35 -84 44 0 6 -4 5 -9 -3 -5 -7 -5 -26 -1 -42 7 -23 6 -27 -8 -21 -15 5
-15 4 -3 -11 11 -14 11 -20 1 -32 -7 -8 -8 -15 -2 -15 13 0 21 -35 12 -50 -8
-13 18 -80 30 -80 14 0 37 36 48 75 6 22 21 55 32 73 17 28 23 31 40 22 17 -9
20 -8 20 10 0 12 7 35 16 51 8 17 13 38 10 46 -4 9 -1 22 5 29 6 8 9 21 5 29
-3 8 -1 26 4 40 10 26 -2 33 -26 17z"/>
<path d="M1151 924 c0 -11 3 -14 6 -6 3 7 2 16 -1 19 -3 4 -6 -2 -5 -13z"/>
<path d="M1224 929 c-5 -9 3 -13 20 -10 5 1 13 -4 17 -11 7 -10 9 -9 9 3 0 18
-37 33 -46 18z"/>
<path d="M1105 900 c-3 -11 -4 -24 0 -30 3 -5 1 -19 -6 -31 -6 -12 -7 -19 -2
-16 6 4 27 -3 49 -15 28 -15 35 -16 25 -5 -7 9 -9 22 -5 29 4 7 4 10 -1 6 -15
-14 -35 14 -35 48 0 37 -15 46 -25 14z"/>
<path d="M2250 870 c0 -33 11 -38 30 -15 9 10 9 15 1 15 -6 0 -11 7 -11 15 0
8 -4 15 -10 15 -5 0 -10 -13 -10 -30z"/>
<path d="M2713 703 c9 -2 23 -2 30 0 6 3 -1 5 -18 5 -16 0 -22 -2 -12 -5z"/>
<path d="M2101 608 c1 -47 3 -57 9 -38 4 14 9 21 9 15 1 -5 5 -16 10 -24 8
-12 12 -12 26 2 23 23 38 22 26 -2 -9 -16 -8 -18 10 -14 11 3 17 8 15 11 -8 7
27 31 36 26 5 -3 8 -10 8 -15 0 -6 -5 -7 -12 -3 -7 5 -8 3 -3 -5 5 -10 10 -10
19 -1 8 9 4 18 -19 36 -16 14 -39 30 -50 36 -17 9 -16 6 4 -16 14 -14 19 -26
13 -26 -6 0 -14 5 -17 11 -5 6 -12 4 -22 -8 -13 -17 -14 -15 -10 17 6 47 0 60
-29 60 -23 0 -24 -3 -23 -62z"/>
<path d="M2205 654 c27 -21 55 -36 55 -30 0 12 -45 46 -59 46 -13 -1 -12 -4 4
-16z"/>
<path d="M2030 583 c0 -21 22 -73 31 -73 5 0 2 17 -6 37 -17 40 -25 52 -25 36z"/>
<path d="M545 541 c-39 -7 -39 -8 -15 -18 56 -25 131 -53 139 -53 5 0 3 17 -4
38 -11 32 -17 37 -47 38 -18 1 -51 -2 -73 -5z"/>
<path d="M1100 530 c-6 -11 -8 -20 -6 -20 3 0 10 9 16 20 6 11 8 20 6 20 -3 0
-10 -9 -16 -20z"/>
<path d="M2086 508 c4 -13 15 -41 26 -63 18 -39 18 -39 15 -9 -2 25 0 30 13
27 12 -3 17 2 16 19 -1 17 4 23 19 23 17 0 20 -7 21 -45 2 -94 -1 -89 47 -83
51 7 53 8 37 27 -6 9 -13 34 -14 57 -1 26 -8 44 -19 51 -13 7 -17 5 -17 -9 -1
-16 -2 -16 -13 -2 -17 23 -65 30 -72 11 -5 -13 -8 -12 -20 4 -14 18 -15 17
-10 -11 l5 -30 -11 28 c-13 33 -34 37 -23 5z"/>
<path d="M1097 486 c-3 -8 -2 -18 3 -21 13 -8 24 15 12 27 -6 6 -11 4 -15 -6z"/>
<path d="M1145 491 c-6 -11 9 -23 19 -14 9 9 7 23 -3 23 -6 0 -12 -4 -16 -9z"/>
<path d="M1738 473 c7 -3 16 -2 19 1 4 3 -2 6 -13 5 -11 0 -14 -3 -6 -6z"/>
<path d="M2145 431 c-3 -5 -1 -12 5 -16 5 -3 10 1 10 9 0 18 -6 21 -15 7z"/>
<path d="M2488 303 c7 -3 16 -2 19 1 4 3 -2 6 -13 5 -11 0 -14 -3 -6 -6z"/>
<path d="M2155 290 c-3 -6 1 -17 9 -26 15 -14 16 -14 16 5 0 23 -16 36 -25 21z"/>
<path d="M2353 246 c3 -8 1 -17 -6 -20 -7 -3 -1 -3 13 1 14 4 55 6 93 5 54 -2
67 1 67 13 0 12 -16 15 -86 15 -71 0 -85 -3 -81 -14z"/>
<path d="M1270 65 c0 -51 3 -65 15 -65 8 0 15 8 15 19 0 10 3 39 6 65 6 42 5
46 -15 46 -19 0 -21 -5 -21 -65z"/>
<path d="M1827 82 c-2 -20 -3 -38 -2 -39 1 -2 16 -6 34 -9 32 -7 33 -6 26 17
-4 13 -17 34 -30 46 l-23 22 -5 -37z"/>
<path d="M1114 102 c-6 -4 -8 -16 -4 -27 6 -17 7 -16 12 8 3 15 5 27 4 27 0 0
-6 -4 -12 -8z"/>
<path d="M1560 96 c0 -2 9 -6 20 -9 11 -3 18 -1 14 4 -5 9 -34 13 -34 5z"/>
<path d="M2240 60 l-35 -7 38 -2 c20 0 37 4 37 9 0 6 -1 9 -2 9 -2 -1 -19 -5
-38 -9z"/>
<path d="M1617 39 c-18 -10 -18 -12 2 -26 12 -8 29 -13 37 -11 14 3 14 6 -2
25 -15 18 -23 20 -37 12z"/>
</g>
</svg>
